<svg width="32" height="30" viewBox="0 0 32 30" fill="none" xmlns="http://www.w3.org/2000/svg">
<g clip-path="url(#clip0_9_3)">
<path d="M13.5653 0C16.8128 0 19.7979 1.13253 22.1347 3.02235C22.5832 3.38518 22.6527 4.04414 22.2909 4.494C21.9293 4.94355 21.2734 5.01436 20.8249 4.65207C18.8476 3.053 16.3215 2.09302 13.5653 2.09302C7.21385 2.09302 2.08714 7.18959 2.08697 13.4493C2.08697 16.5246 3.87513 20.1678 6.34108 23.0955C7.56006 24.5426 8.9056 25.7658 10.2012 26.6193C11.5181 27.4868 12.6834 27.907 13.5653 27.907C14.4472 27.907 15.6125 27.4868 16.9295 26.6193C18.225 25.7658 19.5706 24.5426 20.7896 23.0955C23.2555 20.1678 25.0437 16.5246 25.0437 13.4493C25.0438 12.8715 25.511 12.4028 26.0872 12.4028C26.6634 12.4028 27.1305 12.8715 27.1306 13.4493C27.1306 17.224 25.0057 21.3341 22.3847 24.4459C21.0604 26.0181 19.5685 27.3858 18.0762 28.3689C16.6052 29.338 15.0312 30 13.5653 30C12.0994 30 10.5255 29.338 9.05442 28.3689C7.56219 27.3858 6.07025 26.0181 4.74596 24.4459C2.12495 21.3341 0 17.224 0 13.4493C0.000165445 6.00921 6.08576 0 13.5653 0Z" fill="#77689B"/>
<path fill-rule="evenodd" clip-rule="evenodd" d="M13.5653 8.37209C16.4468 8.37209 18.7828 10.7148 18.7828 13.6047C18.7828 16.4945 16.4468 18.8372 13.5653 18.8372C10.6838 18.8372 8.34789 16.4945 8.34789 13.6047C8.34789 10.7148 10.6838 8.37209 13.5653 8.37209ZM13.5653 10.4651C11.8364 10.4651 10.4349 11.8707 10.4349 13.6047C10.4349 15.3386 11.8364 16.7442 13.5653 16.7442C15.2942 16.7442 16.6958 15.3386 16.6958 13.6047C16.6958 11.8707 15.2942 10.4651 13.5653 10.4651Z" fill="#77689B"/>
<path d="M30.325 1.05332C30.6759 0.615229 31.3005 0.573105 31.6986 0.975654C32.0742 1.35551 32.1004 1.98572 31.7679 2.40098L25.5165 10.2062C24.6084 11.3396 23.0466 11.4904 21.9744 10.5264L19.1265 7.96602C18.7282 7.60795 18.672 6.97873 18.9798 6.54615C19.3035 6.09137 19.9238 6.0029 20.3466 6.38263L23.1958 8.9444C23.46 9.18166 23.8365 9.15398 24.0736 8.85856L30.325 1.05332Z" fill="#77689B"/>
<path d="M30.3248 1.05335C30.6758 0.615253 31.3003 0.573129 31.6985 0.975679C32.0741 1.35554 32.1003 1.98575 31.7678 2.40101L25.5164 10.2062C24.6082 11.3396 23.0465 11.4904 21.9742 10.5265L19.1264 7.96605C18.7281 7.60798 18.6719 6.97875 18.9796 6.54617C19.3034 6.09139 19.9237 6.00292 20.3465 6.38266L23.1957 8.94443C23.4598 9.18168 23.8364 9.15401 24.0734 8.85858L30.3248 1.05335Z" fill="#E77479"/>
</g>
<defs>
<clipPath id="clip0_9_3">
<rect width="32" height="30" fill="white"/>
</clipPath>
</defs>
</svg>
